Trial010_GRF
version=1
nRows=37
nColumns=19
inDegrees=yes
endheader
time	ground_force_vx	ground_force_vy	ground_force_vz	ground_force_px	ground_force_py	ground_force_pz	1_ground_force_vx	1_ground_force_vy	1_ground_force_vz	1_ground_force_px	1_ground_force_py	1_ground_force_pz	ground_torque_x	ground_torque_y	ground_torque_z	1_ground_torque_x	1_ground_torque_y	1_ground_torque_z
      0.88000000	    116.25239633	    445.14275963	     -7.25305443	      0.66504796	      0.00000000	      0.32181800	   -117.67653817	    417.49928576	     12.95531191	      1.38777938	      0.00000000	      0.23881233	   -145.21243052	     34.74035743	    296.16341217	    -95.61546082	    -60.58719038	    578.94678369
      0.88400000	    116.22058246	    445.18039874	     -7.27979217	      0.66506097	     -0.00000000	      0.32187386	   -117.77407924	    417.56958145	     12.91491481	      1.38792932	      0.00000000	      0.23895982	   -145.25395218	     34.73440819	    296.19500443	    -95.68706388	    -60.58816483	    579.10798359
      0.88800000	    116.18198847	    445.21887499	     -7.30434850	      0.66507369	      0.00000000	      0.32193377	   -117.87076536	    417.63970525	     12.87445551	      1.38807388	      0.00000000	      0.23910404	   -145.29725083	     34.72596348	    296.22697979	    -95.75736808	    -60.58817961	    579.26672642
      0.89200000	    116.13760673	    445.25838716	     -7.32626921	      0.66508607	      0.00000000	      0.32199708	   -117.96715226	    417.71109863	     12.83383924	      1.38821339	      0.00000000	      0.23924508	   -145.34209081	     34.71509059	    296.25943754	    -95.82678077	    -60.58715861	    579.42516358
      0.89600000	    116.08844056	    445.29883176	     -7.34517509	      0.66509805	      0.00000000	      0.32206312	   -118.06378154	    417.78518654	     12.79299720	      1.38834824	      0.00000000	      0.23938307	   -145.38811802	     34.70189578	    296.29227059	    -95.89571010	    -60.58507188	    579.58544026
      0.90000000	    116.03548590	    445.33980818	     -7.36077115	      0.66510954	     -0.00000000	      0.32213115	   -118.16116263	    417.86332686	     12.75188655	      1.38847885	      0.00000000	      0.23951812	   -145.43487106	     34.68652542	    296.32516946	    -95.96455000	    -60.58193131	    579.74962252
      0.90400000	    115.97971477	    445.38063474	     -7.37285214	      0.66512045	      0.00000000	      0.32220043	   -118.25975499	    417.94676066	     12.71048945	      1.38860567	      0.00000000	      0.23965037	   -145.48179600	     34.66916533	    296.35763468	    -96.03366541	    -60.57778459	    579.91962579
      0.90800000	    115.92206063	    445.42037456	     -7.38130456	      0.66513069	      0.00000000	      0.32227023	   -118.35995112	    418.03656492	     12.66881153	      1.38872917	      0.00000000	      0.23977995	   -145.52826355	     34.65003831	    296.38899670	    -96.10337817	    -60.57270807	    580.09714653
      0.91200000	    115.86340568	    445.45786975	     -7.38610548	      0.66514016	      0.00000000	      0.32233985	   -118.46206087	    418.13360870	     12.62687970	      1.38884984	      0.00000000	      0.23990695	   -145.57358840	     34.62940026	    296.41844221	    -96.17395396	    -60.56679871	    580.28359846
      0.91600000	    115.80457007	    445.49178298	     -7.38731818	      0.66514878	      0.00000000	      0.32240863	   -118.56629756	    418.23851406	     12.58473966	      1.38896819	      0.00000000	      0.24003149	   -145.61704988	     34.60753487	    296.44504556	    -96.24559073	    -60.56016566	    580.48005483
      0.92000000	    115.74630297	    445.52064500	     -7.38508509	      0.66515649	      0.00000000	      0.32247595	   -118.67276648	    418.35162288	     12.54245320	      1.38908469	      0.00000000	      0.24015363	   -145.65791370	     34.58474726	    296.46780404	    -96.31840884	    -60.55292220	    580.68719839
      0.92400000	    115.68927568	    445.54290674	     -7.37961815	      0.66516326	      0.00000000	      0.32254129	   -118.78145626	    418.47297062	     12.50009556	      1.38919985	      0.00000000	      0.24027344	   -145.69545428	     34.56135663	    296.48567552	    -96.39244345	    -60.54517840	    580.90528044
      0.92800000	    115.63407687	    445.55699439	     -7.37118701	      0.66516908	      0.00000000	      0.32260419	   -118.89223333	    418.60226809	     12.45775309	      1.38931412	      0.00000000	      0.24039093	   -145.72897718	     34.53768835	    296.49761716	    -96.46763925	    -60.53703496	    581.13409069
      0.93200000	    115.58120990	    445.56136566	     -7.36010547	      0.66517399	      0.00000000	      0.32266429	   -119.00483979	    418.73889206	     12.41552111	      1.38942792	      0.00000000	      0.24050611	   -145.75784101	     34.51406554	    296.50262372	    -96.54384794	    -60.52857858	    581.37293912
      0.93600000	    115.53109225	    445.55456566	     -7.34671672	      0.66517806	      0.00000000	      0.32272134	   -119.11889471	    418.88188551	     12.37350232	      1.38954163	      0.00000000	      0.24061894	   -145.78147834	     34.49080079	    296.49976409	    -96.62082845	    -60.51987890	    581.62065114
      0.94000000	    115.48405656	    445.53528059	     -7.33137814	      0.66518138	     -0.00000000	      0.32277517	   -119.23389886	    419.02996797	     12.33180552	      1.38965558	      0.00000000	      0.24072938	   -145.79941493	     34.46818805	    296.48821485	    -96.69825020	    -60.51098693	    581.87557696
      0.94400000	    115.44035311	    445.50238763	     -7.31444627	      0.66518408	      0.00000000	      0.32282574	   -119.34924292	    419.18155616	     12.29054461	      1.38977001	      0.00000000	      0.24083734	   -145.81128674	     34.44649506	    296.46728966	    -96.77569935	    -60.50193503	    582.13561560
      0.94800000	    115.40015343	    445.45499943	     -7.29626287	      0.66518628	     -0.00000000	      0.32287312	   -119.46421891	    419.33479457	     12.24983781	      1.38988508	      0.00000000	      0.24094275	   -145.81685386	     34.42595672	    296.43646373	    -96.85268785	    -60.49273797	    582.39825349
      0.95200000	    115.36355513	    445.39250150	     -7.27714257	      0.66518812	      0.00000000	      0.32291745	   -119.57803481	    419.48759542	     12.20980688	      1.39000089	      0.00000000	      0.24104548	   -145.81601073	     34.40676947	    296.39539282	    -96.92866504	    -60.48339494	    582.66061673
      0.95600000	    115.33058757	    445.31458117	     -7.25736289	      0.66518970	      0.00000000	      0.32295900	   -119.68983205	    419.63768667	     12.17057631	      1.39011743	     -0.00000000	      0.24114543	   -145.80879205	     34.38908718	    296.34392633	    -97.00303146	    -60.47389229	    582.91953580
      0.96000000	    115.30121826	    445.22124710	     -7.23715691	      0.66519113	      0.00000000	      0.32299813	   -119.79870552	    419.78266699	     12.13227226	      1.39023459	      0.00000000	      0.24124248	   -145.79537386	     34.37301849	    296.28211417	    -97.07515441	    -60.46420657	    583.17162083
      0.96400000	    115.27535965	    445.11283827	     -7.21670890	      0.66519243	      0.00000000	      0.32303524	   -119.90372575	    419.92006587	     12.09502133	      1.39035217	      0.00000000	      0.24133652	   -145.77606973	     34.35862576	    296.21020730	    -97.14438462	    -60.45430804	    583.41334527
      0.96800000	    115.25287602	    444.99002228	     -7.19615262	      0.66519362	      0.00000000	      0.32307083	   -120.00396255	    420.04740717	     12.05894911	      1.39046990	      0.00000000	      0.24142744	   -145.75132210	     34.34592574	    296.12865194	    -97.21007379	    -60.44416427	    583.64113578
      0.97200000	    115.23359010	    444.85378282	     -7.17557237	      0.66519463	     -0.00000000	      0.32310539	   -120.09850956	    420.16227426	     12.02417846	      1.39058740	      0.00000000	      0.24151514	   -145.72168919	     34.33489159	    296.03807761	    -97.27159219	    -60.43374381	    583.85146542
      0.97600000	    115.21728926	    444.70539667	     -7.15500622	      0.66519532	      0.00000000	      0.32313945	   -120.18650878	    420.26237468	     11.99082778	      1.39070422	      0.00000000	      0.24159955	   -145.68782806	     34.32545629	    295.93927950	    -97.32834596	    -60.42301989	    584.04094762
      0.98000000	    115.20373094	    444.54640124	     -7.13445125	      0.66519552	      0.00000000	      0.32317353	   -120.26717447	    420.34560204	     11.95900890	      1.39081987	      0.00000000	      0.24168060	   -145.65047480	     34.31751699	    295.83319554	    -97.37979347	    -60.41197372	    584.20642761
      0.98400000	    115.19264720	    444.37855399	     -7.11387041	      0.66519496	     -0.00000000	      0.32320813	   -120.33981537	    420.41009310	     11.92882508	      1.39093379	      0.00000000	      0.24175825	   -145.61042275	     34.31094030	    295.72087941	    -97.42546037	    -60.40059752	    584.34506802
      0.98800000	    115.18374864	    444.20378571	     -7.09320075	      0.66519332	      0.00000000	      0.32324369	   -120.40385449	    420.45427768	     11.90036876	      1.39104538	      0.00000000	      0.24183250	   -145.56849986	     34.30556829	    295.60347049	    -97.46495257	    -60.38889685	    584.45442559
      0.99200000	    115.17672760	    444.02414984	     -7.07236256	      0.66519020	     -0.00000000	      0.32328060	   -120.45884573	    420.47691964	     11.87371932	      1.39115405	      0.00000000	      0.24190336	   -145.52554598	     34.30122527	    295.48216243	    -97.49796707	    -60.37689228	    584.53251599
      0.99600000	    115.17126110	    443.84177001	     -7.05126940	      0.66518516	      0.00000000	      0.32331920	   -120.50448664	    420.47714744	     11.84894074	      1.39125920	     -0.00000000	      0.24197086	   -145.48239097	     34.29772507	    295.35817194	    -97.52430011	    -60.36462006	    584.57786478
      1.00000000	    115.16701363	    443.65878790	     -7.02983841	      0.66517773	      0.00000000	      0.32335973	   -120.54062683	    420.45447338	     11.82607935	      1.39136027	      0.00000000	      0.24203508	   -145.43983394	     34.29487894	    295.23270910	    -97.54385257	    -60.35213163	    584.58954304
      1.00400000	    115.16364017	    443.47731325	     -7.00800066	      0.66516738	      0.00000000	      0.32340236	   -120.56727171	    420.40880088	     11.80516146	      1.39145671	      0.00000000	      0.24209612	   -145.39862442	     34.29250349	    295.10695056	    -97.55663247	    -60.33949197	    584.56718651
      1.00800000	    115.16078951	    443.29937780	     -6.98571097	      0.66515361	      0.00000000	      0.32344715	   -120.58458142	    420.34041986	     11.78619125	      1.39154807	     -0.00000000	      0.24215411	   -145.35944577	     34.29042874	    294.98201637	    -97.56275461	    -60.32677671	    584.51099810
      1.01200000	    115.15810820	    443.12689397	     -6.96295672	      0.66513588	     -0.00000000	      0.32349411	   -120.59286494	    420.24999025	     11.76914888	      1.39163398	      0.00000000	      0.24220924	   -145.32290113	     34.28850558	    294.85895093	    -97.56243724	    -60.31406824	    584.42173348
      1.01600000	    115.15524486	    442.96161920	     -6.93976525	      0.66511371	      0.00000000	      0.32354312	   -120.59256947	    420.13851450	     11.75398902	      1.39171415	      0.00000000	      0.24226169	   -145.28950217	     34.28661237	    294.73870824	    -97.55599597	    -60.30145095	    584.30067040
      1.02000000	    115.15185499	    442.80512622	     -6.91620960	      0.66508667	      0.00000000	      0.32359400	   -120.58426552	    420.00729995	     11.74063995	      1.39178844	      0.00000000	      0.24231172	   -145.25966063	     34.28466030	    294.62214159	    -97.54383505	    -60.28900600	    584.14956263
      1.02400000	    115.14760614	    442.65878035	     -6.89241214	      0.66505437	     -0.00000000	      0.32364647	   -120.56862801	    419.85791235	     11.72900331	      1.39185681	      0.00000000	      0.24235960	   -145.23368295	     34.28259713	    294.50999814	    -97.52643620	    -60.27680564	    583.97057995
